# xmcd CD database file
#
# Track frame offsets:
#	150
#	11378
#	23906
#	34184
#	47112
#	63965
#	80243
#	101671
#	115449
#	128502
#	148855
#
# Disc length: 2175 seconds
#
# Revision: 0
# Processed by: cddbd v1.5.2PL0 Copyright (c) Steve Scherf et al.
# Submitted via: CDex 1.50beta10
#
DISCID=94087d0b
DTITLE=Tracey Rains - Live
DYEAR=2007
DGENRE=Country
TTITLE0=Silver Threads and Golden Needles
TTITLE1=Jolene
TTITLE2=You Ain't Woman Enough To Take My Man
TTITLE3=True Love Ways
TTITLE4=Heads Carolina Tails California
TTITLE5=Blame It On Your Heart
TTITLE6=One Moment In Time
TTITLE7=I Still Miss Someone
TTITLE8=Son Of A Preacher Man
TTITLE9=I'll Always Love You
TTITLE10=Lights On The Hill
EXTD=YEAR: 2007
EXTT0=
EXTT1=
EXTT2=
EXTT3=
EXTT4=
EXTT5=
EXTT6=
EXTT7=
EXTT8=
EXTT9=
EXTT10=
PLAYORDER=
